<svg width="3672" height="811" viewBox="0 0 3672 811" fill="none" xmlns="http://www.w3.org/2000/svg">
<path fill-rule="evenodd" clip-rule="evenodd" d="M0 645.197H3671.9L3672 383C3672 383 3201.1 517.597 2745.9 339.797C2197.8 125.797 1769.9 330.797 1709.9 354.097C1563.8 410.597 1342.8 587.897 610.4 407.897C336.1 330.997 0 383.897 0 383.897V645.197Z" fill="url(#paint0_linear_121_24)"/>
<path fill-rule="evenodd" clip-rule="evenodd" d="M0 810.997H3672L3671.95 514.099C3671.95 514.099 3176.9 676.697 2698.2 489.797C2121.8 264.797 1671.9 480.397 1608.7 504.797C1455 564.197 1222.7 750.697 452.5 561.397C164.1 480.597 0 516.397 0 516.397V810.997Z" fill="url(#paint1_linear_121_24)"/>
<path d="M2815.84 213.498C2808.96 210.503 2800.97 213.624 2797.98 220.505C2797.46 221.651 2788.48 241.097 2767.43 252.125C2773.71 243.246 2778.68 234.588 2782.58 226.566C2801.1 188.432 2800.43 156.166 2800.39 154.81C2800.18 147.308 2793.94 141.356 2786.42 141.607C2778.92 141.817 2773.01 148.068 2773.22 155.57C2773.25 156.362 2774.01 213.651 2723.51 261.183C2703.43 237.259 2705.9 204.074 2705.94 203.583C2706.59 196.129 2701.1 189.542 2693.64 188.859C2686.15 188.171 2679.55 193.678 2678.87 201.154C2678.7 203.024 2675.2 245.512 2702.35 278.231C2689.36 287.192 2673.97 295.404 2655.77 302.328C2653.92 276.881 2647.64 248.935 2633.86 220.129C2628.32 208.54 2623.2 197.291 2618.48 186.417C2667.27 164.828 2688.65 127.47 2697.99 98.7876C2698.04 98.6263 2698.09 98.4665 2698.14 98.3067C2743.56 97.5457 2770.01 61.4817 2776.2 41.1464C2778.39 33.9676 2774.35 26.3415 2767.17 24.1561C2759.99 21.9615 2752.41 25.9839 2750.23 33.161C2749.73 34.7164 2738.75 68.0791 2704.47 70.9463C2707.4 50.9594 2706 36.6294 2705.92 35.7878C2705.15 28.3367 2698.51 22.9447 2691.04 23.6858C2683.59 24.4376 2678.15 31.0974 2678.88 38.5515C2678.91 38.7981 2681.17 63.3415 2671.85 91.2893C2669.09 99.5607 2665.6 107.22 2661.47 114.323C2645.33 102.404 2636.88 70.6191 2635.03 58.7134C2633.88 51.3034 2626.96 46.2173 2619.54 47.3571C2612.12 48.494 2607.03 55.4292 2608.17 62.8484C2609.1 68.9618 2617.03 115.13 2645.01 136.014C2634.83 146.409 2622.48 154.858 2608 161.323C2571.87 71.2644 2564.37 12.6552 2564.29 11.9552C2563.38 4.51013 2556.63 -0.789063 2549.18 0.0966711C2541.72 0.991537 2536.41 7.75782 2537.3 15.2089C2537.74 18.8112 2548.6 104.886 2609.34 231.859C2627.63 270.097 2633.28 311.297 2626.13 354.32C2626 355.098 2625.87 355.868 2625.73 356.632C2625.39 355.565 2625.04 354.488 2624.67 353.403C2613.86 321.535 2589.5 275.709 2534.8 238.373C2530.54 235.462 2526.44 232.383 2522.47 229.182C2538.37 215.141 2546.68 194.546 2546.68 168.782C2546.68 146.474 2540.3 127.9 2540.03 127.12C2537.56 120.035 2529.8 116.295 2522.72 118.762C2515.64 121.234 2511.89 128.98 2514.36 136.066C2514.55 136.605 2531.77 187.337 2502.39 210.484C2481.4 187.813 2465.94 159.887 2456.26 127.028C2445.53 90.6257 2446.31 61.5304 2446.32 61.2641C2446.58 53.7627 2440.71 47.4713 2433.21 47.2126C2425.7 46.9219 2419.42 52.8207 2419.16 60.3205C2419.11 61.6506 2418.16 93.3332 2429.91 133.745C2445.55 187.556 2476.52 231.499 2519.48 260.822C2519.7 260.971 2519.91 261.127 2520.12 261.276C2509.49 261.003 2496.74 259.803 2483.45 256.594C2439.15 245.897 2410.63 218.509 2398.69 175.188C2396.7 167.954 2389.22 163.706 2381.98 165.696C2374.75 167.689 2370.5 175.171 2372.49 182.406C2387.04 235.218 2423.21 270.007 2477.07 283.01C2494.9 287.314 2511.8 288.516 2525.12 288.516C2538.01 288.516 2547.52 287.393 2551.3 286.862C2565.52 300.855 2577.21 316.325 2586.3 333.18C2566.52 338.014 2509.98 347.254 2465.08 309.947C2459.3 305.153 2450.74 305.943 2445.94 311.717C2441.15 317.488 2441.94 326.055 2447.71 330.852C2480.53 358.119 2517.41 365.228 2546.95 365.228C2570.27 365.228 2589.01 360.796 2597.57 358.353C2597.88 359.225 2598.23 360.082 2598.53 360.96C2608.98 391.104 2607.99 413.855 2607.98 414.036C2607.62 420.411 2611.74 426.178 2617.9 427.893C2619.11 428.231 2620.34 428.393 2621.55 428.393C2626.48 428.393 2631.15 425.697 2633.55 421.166C2634.03 420.259 2637 414.54 2640.63 404.998C2719.28 402.212 2770.13 356.101 2772.42 353.981C2777.92 348.896 2778.26 340.328 2773.19 334.815C2768.12 329.302 2759.53 328.942 2754 334C2753.54 334.425 2712.32 371.436 2649.28 377.184C2652.51 364.045 2655.19 348.46 2656.07 331.121C2690.24 319.445 2716.15 303.691 2735.79 286.79C2735.91 286.79 2736.03 286.792 2736.15 286.792C2798.06 286.792 2821.88 233.69 2822.86 231.418C2825.86 224.53 2822.72 216.491 2815.84 213.498Z" fill="url(#paint2_angular_121_24)"/>
<path d="M2815.84 213.498C2808.96 210.503 2800.97 213.624 2797.98 220.505C2797.46 221.651 2788.48 241.097 2767.43 252.125C2773.71 243.246 2778.68 234.588 2782.58 226.566C2801.1 188.432 2800.43 156.166 2800.39 154.81C2800.18 147.308 2793.94 141.356 2786.42 141.607C2778.92 141.817 2773.01 148.068 2773.22 155.57C2773.25 156.362 2774.01 213.651 2723.51 261.183C2703.43 237.259 2705.9 204.074 2705.94 203.583C2706.59 196.129 2701.1 189.542 2693.64 188.859C2686.15 188.171 2679.55 193.678 2678.87 201.154C2678.7 203.024 2675.2 245.512 2702.35 278.231C2689.36 287.192 2673.97 295.404 2655.77 302.328C2653.92 276.881 2647.64 248.935 2633.86 220.129C2628.32 208.54 2623.2 197.291 2618.48 186.417C2667.27 164.828 2688.65 127.47 2697.99 98.7876C2698.04 98.6263 2698.09 98.4665 2698.14 98.3067C2743.56 97.5457 2770.01 61.4817 2776.2 41.1464C2778.39 33.9676 2774.35 26.3415 2767.17 24.1561C2759.99 21.9615 2752.41 25.9839 2750.23 33.161C2749.73 34.7164 2738.75 68.0791 2704.47 70.9463C2707.4 50.9594 2706 36.6294 2705.92 35.7878C2705.15 28.3367 2698.51 22.9447 2691.04 23.6858C2683.59 24.4376 2678.15 31.0974 2678.88 38.5515C2678.91 38.7981 2681.17 63.3415 2671.85 91.2893C2669.09 99.5607 2665.6 107.22 2661.47 114.323C2645.33 102.404 2636.88 70.6191 2635.03 58.7134C2633.88 51.3034 2626.96 46.2173 2619.54 47.3571C2612.12 48.494 2607.03 55.4292 2608.17 62.8484C2609.1 68.9618 2617.03 115.13 2645.01 136.014C2634.83 146.409 2622.48 154.858 2608 161.323C2603.62 150.41 2599.67 139.964 2596.09 130.021V203.076C2600.22 212.411 2604.63 222.011 2609.34 231.859C2627.63 270.097 2633.28 311.297 2626.13 354.32C2626 355.098 2625.87 355.868 2625.74 356.632C2625.39 355.565 2625.04 354.488 2624.67 353.403C2619.25 337.431 2610.43 317.954 2596.09 297.795V358.764C2596.61 358.623 2597.11 358.484 2597.57 358.353C2597.88 359.225 2598.23 360.082 2598.53 360.96C2608.98 391.104 2607.99 413.855 2607.98 414.036C2607.62 420.411 2611.74 426.178 2617.9 427.893C2619.11 428.231 2620.34 428.393 2621.55 428.393C2626.48 428.393 2631.15 425.697 2633.55 421.166C2634.03 420.259 2637 414.54 2640.63 404.998C2719.28 402.212 2770.13 356.101 2772.42 353.981C2777.92 348.896 2778.26 340.328 2773.19 334.815C2768.12 329.302 2759.53 328.942 2754 334C2753.54 334.425 2712.32 371.436 2649.28 377.184C2652.51 364.045 2655.19 348.46 2656.07 331.121C2690.24 319.445 2716.15 303.691 2735.79 286.79C2735.91 286.79 2736.03 286.792 2736.15 286.792C2798.06 286.792 2821.88 233.69 2822.86 231.418C2825.86 224.53 2822.72 216.491 2815.84 213.498Z" fill="url(#paint3_angular_121_24)"/>
<defs>
<linearGradient id="paint0_linear_121_24" x1="1836" y1="810.972" x2="1836" y2="-0.0235411" gradientUnits="userSpaceOnUse">
<stop stop-color="#232B31"/>
<stop offset="1" stop-color="#42515C"/>
</linearGradient>
<linearGradient id="paint1_linear_121_24" x1="1835.98" y1="810.98" x2="1835.98" y2="207.18" gradientUnits="userSpaceOnUse">
<stop stop-color="#232B31"/>
<stop offset="1" stop-color="#42515C"/>
</linearGradient>
<radialGradient id="paint2_angular_121_24" cx="0" cy="0" r="1" gradientUnits="userSpaceOnUse" gradientTransform="translate(2710.05 225.975) rotate(90) scale(202.418 113.955)">
<stop offset="0.380461" stop-color="#FFDFBA"/>
<stop offset="0.998453" stop-color="#FFA07A"/>
</radialGradient>
<radialGradient id="paint3_angular_121_24" cx="0" cy="0" r="1" gradientUnits="userSpaceOnUse" gradientTransform="translate(2710.05 225.975) rotate(90) scale(202.418 113.955)">
<stop offset="0.380461" stop-color="#FFDFBA"/>
<stop offset="0.998453" stop-color="#FFA07A"/>
</radialGradient>
</defs>
</svg>
